<?xml version="1.0" encoding="UTF-8"?>
<svg width="299px" height="89px" viewBox="0 0 299 89" version="1.1" xmlns="http://www.w3.org/2000/svg" xmlns:xlink="http://www.w3.org/1999/xlink">
    <!-- Generator: Sketch 52.4 (67378) - http://www.bohemiancoding.com/sketch -->
    <title>UniversityOfDenver-Signature</title>
    <desc>Created with Sketch.</desc>
    <defs>
        <polygon id="path-1" points="0 0.169 291.159 0.169 291.159 88.94 0 88.94"></polygon>
    </defs>
    <g id="UniversityOfDenver-Signature" stroke="none" stroke-width="1" fill="none" fill-rule="evenodd">
        <path d="M93.802,21.47 C93.802,16.716 93.802,15.86 93.738,14.882 C93.679,13.837 93.439,13.355 92.429,13.141 C92.187,13.076 91.67,13.052 91.391,13.052 C91.276,13.052 91.148,12.987 91.148,12.87 C91.148,12.683 91.302,12.626 91.646,12.626 C93.007,12.626 94.867,12.712 95.146,12.712 C95.42,12.712 97.252,12.626 98.159,12.626 C98.504,12.626 98.657,12.683 98.657,12.87 C98.657,12.987 98.532,13.052 98.411,13.052 C98.197,13.052 98.007,13.076 97.648,13.141 C96.824,13.261 96.574,13.815 96.515,14.882 C96.465,15.86 96.465,16.716 96.465,21.47 L96.465,25.742 C96.465,30.133 97.437,32.028 98.746,33.284 C100.248,34.689 101.608,34.963 103.348,34.963 C105.225,34.963 107.051,34.075 108.146,32.762 C109.546,31.022 109.923,28.432 109.923,25.289 L109.923,21.47 C109.923,16.716 109.923,15.86 109.859,14.882 C109.792,13.837 109.546,13.355 108.542,13.141 C108.299,13.076 107.771,13.052 107.502,13.052 C107.379,13.052 107.256,12.987 107.256,12.87 C107.256,12.683 107.415,12.626 107.747,12.626 C109.118,12.626 110.803,12.712 110.98,12.712 C111.198,12.712 112.629,12.626 113.542,12.626 C113.885,12.626 114.029,12.683 114.029,12.87 C114.029,12.987 113.908,13.052 113.792,13.052 C113.584,13.052 113.396,13.052 113.026,13.141 C112.2,13.295 111.959,13.815 111.902,14.882 C111.838,15.86 111.838,16.716 111.838,21.47 L111.838,24.743 C111.838,28.035 111.472,31.689 109.024,33.861 C106.828,35.814 104.547,36.125 102.741,36.125 C101.708,36.125 98.629,36 96.465,33.95 C94.954,32.524 93.802,30.385 93.802,25.928 L93.802,21.47" id="Fill-1" fill="#1A1919"></path>
        <path d="M117.389,31.546 C117.461,34.039 117.755,34.833 118.582,35.084 C119.158,35.238 119.834,35.266 120.108,35.266 C120.259,35.266 120.353,35.329 120.353,35.452 C120.353,35.633 120.162,35.697 119.806,35.697 C118.069,35.697 116.838,35.603 116.577,35.603 C116.3,35.603 115.01,35.697 113.642,35.697 C113.328,35.697 113.147,35.661 113.147,35.452 C113.147,35.329 113.243,35.266 113.389,35.266 C113.642,35.266 114.184,35.238 114.642,35.084 C115.414,34.873 115.561,33.985 115.561,31.211 L115.595,13.717 C115.595,12.534 115.675,12.194 115.925,12.194 C116.169,12.194 116.686,12.87 116.993,13.177 C117.461,13.695 122.009,18.604 126.7,23.644 C129.712,26.881 133.049,30.59 134.011,31.601 L133.687,16.109 C133.648,14.118 133.449,13.442 132.494,13.203 C131.949,13.076 131.254,13.052 131.004,13.052 C130.784,13.052 130.748,12.955 130.748,12.833 C130.748,12.648 131.004,12.626 131.366,12.626 C132.741,12.626 134.203,12.712 134.534,12.712 C134.879,12.712 135.879,12.626 137.134,12.626 C137.466,12.626 137.676,12.648 137.676,12.833 C137.676,12.955 137.567,13.052 137.341,13.052 C137.199,13.052 136.983,13.052 136.621,13.141 C135.61,13.355 135.48,14.023 135.48,15.86 L135.43,33.744 C135.43,35.756 135.366,35.907 135.152,35.907 C134.913,35.907 134.534,35.568 132.926,33.95 C132.591,33.644 128.195,29.166 124.954,25.684 C121.414,21.866 117.967,18.025 116.993,16.926 L117.389,31.546" id="Fill-2" fill="#1A1919"></path>
        <path d="M143.995,26.841 C143.995,29.771 143.995,32.184 144.139,33.472 C144.23,34.345 144.414,35.018 145.332,35.149 C145.753,35.202 146.425,35.266 146.715,35.266 C146.883,35.266 146.938,35.351 146.938,35.452 C146.938,35.603 146.8,35.697 146.47,35.697 C144.777,35.697 142.857,35.603 142.703,35.603 C142.555,35.603 140.635,35.697 139.724,35.697 C139.385,35.697 139.229,35.633 139.229,35.452 C139.229,35.351 139.292,35.266 139.477,35.266 C139.743,35.266 140.114,35.202 140.385,35.149 C140.997,35.018 141.154,34.345 141.265,33.472 C141.436,32.184 141.436,29.771 141.436,26.841 L141.436,21.47 C141.436,16.716 141.436,15.86 141.366,14.882 C141.305,13.837 140.997,13.317 140.334,13.177 C139.993,13.076 139.597,13.052 139.385,13.052 C139.26,13.052 139.14,12.987 139.14,12.87 C139.14,12.683 139.292,12.626 139.622,12.626 C140.635,12.626 142.555,12.712 142.703,12.712 C142.857,12.712 144.777,12.626 145.702,12.626 C146.039,12.626 146.19,12.683 146.19,12.87 C146.19,12.987 146.063,13.052 145.944,13.052 C145.732,13.052 145.539,13.076 145.184,13.141 C144.351,13.295 144.109,13.815 144.053,14.882 C143.995,15.86 143.995,16.716 143.995,21.47 L143.995,26.841" id="Fill-3" fill="#1A1919"></path>
        <path d="M160.052,31.968 C161.824,27.876 165.905,17.229 166.583,15.04 C166.73,14.58 166.844,14.15 166.844,13.87 C166.844,13.63 166.759,13.317 166.455,13.177 C166.083,13.052 165.632,13.052 165.306,13.052 C165.116,13.052 164.962,13.025 164.962,12.87 C164.962,12.683 165.145,12.626 165.632,12.626 C166.844,12.626 168.256,12.712 168.627,12.712 C168.813,12.712 170.118,12.626 170.998,12.626 C171.328,12.626 171.513,12.683 171.513,12.833 C171.513,12.987 171.398,13.052 171.15,13.052 C170.944,13.052 170.271,13.052 169.688,13.417 C169.299,13.695 168.841,14.205 168.011,16.286 C167.682,17.145 166.154,20.803 164.602,24.559 C162.741,29.017 161.352,32.305 160.659,33.796 C159.806,35.633 159.688,36.125 159.371,36.125 C159.013,36.125 158.854,35.697 158.286,34.22 L150.8,15.52 C150.133,13.815 149.668,13.482 148.603,13.177 C148.147,13.052 147.624,13.052 147.444,13.052 C147.258,13.052 147.198,12.955 147.198,12.833 C147.198,12.648 147.516,12.626 148.003,12.626 C149.457,12.626 151.198,12.712 151.564,12.712 C151.878,12.712 153.236,12.626 154.403,12.626 C154.958,12.626 155.224,12.683 155.224,12.833 C155.224,12.987 155.134,13.052 154.922,13.052 C154.586,13.052 154.03,13.076 153.757,13.203 C153.423,13.355 153.369,13.594 153.369,13.815 C153.369,14.205 153.74,15.156 154.191,16.344 L160.052,31.968" id="Fill-4" fill="#1A1919"></path>
        <path d="M175.205,21.47 C175.205,16.716 175.205,15.86 175.147,14.882 C175.086,13.837 174.837,13.355 173.834,13.141 C173.58,13.076 173.071,13.052 172.798,13.052 C172.673,13.052 172.557,12.987 172.557,12.87 C172.557,12.683 172.714,12.626 173.042,12.626 C174.417,12.626 176.338,12.712 176.495,12.712 C176.698,12.712 183.732,12.712 184.438,12.683 C185.021,12.648 185.51,12.594 185.757,12.534 C185.903,12.5 186.028,12.376 186.177,12.376 C186.284,12.376 186.3,12.5 186.3,12.648 C186.3,12.87 186.151,13.232 186.058,14.085 C186.028,14.386 185.963,15.741 185.903,16.109 C185.872,16.257 185.808,16.435 185.679,16.435 C185.51,16.435 185.446,16.286 185.446,16.043 C185.446,15.83 185.42,15.31 185.27,14.942 C185.045,14.453 184.742,14.085 183.095,13.909 C182.577,13.837 178.285,13.815 177.957,13.815 C177.834,13.815 177.764,13.909 177.764,14.118 L177.764,22.535 C177.764,22.759 177.809,22.845 177.957,22.845 C178.351,22.845 183.064,22.845 183.766,22.787 C184.497,22.72 184.929,22.664 185.2,22.352 C185.42,22.111 185.532,21.96 185.658,21.96 C185.757,21.96 185.808,22.019 185.808,22.2 C185.808,22.388 185.658,22.901 185.575,23.917 C185.51,24.531 185.446,25.655 185.446,25.867 C185.446,26.107 185.446,26.448 185.249,26.448 C185.084,26.448 185.021,26.325 185.021,26.171 C185.021,25.867 185.021,25.566 184.897,25.158 C184.771,24.743 184.497,24.216 183.311,24.098 C182.492,24.004 178.499,23.941 177.982,23.941 C177.834,23.941 177.764,24.029 177.764,24.162 L177.764,26.841 C177.764,27.876 177.739,31.41 177.764,32.072 C177.854,34.166 179.279,34.563 182.278,34.563 C183.064,34.563 184.414,34.563 185.2,34.22 C185.996,33.894 186.358,33.284 186.584,32.028 C186.637,31.689 186.693,31.572 186.851,31.572 C187.039,31.572 187.039,31.814 187.039,32.028 C187.039,32.271 186.795,34.345 186.637,34.992 C186.425,35.78 186.177,35.78 184.992,35.78 C180.381,35.78 177.376,35.603 176.495,35.603 C176.338,35.603 174.417,35.697 173.491,35.697 C173.161,35.697 173.015,35.633 173.015,35.452 C173.015,35.351 173.071,35.266 173.256,35.266 C173.535,35.266 173.894,35.202 174.175,35.149 C174.788,35.018 174.938,34.345 175.046,33.472 C175.205,32.184 175.205,29.771 175.205,26.841 L175.205,21.47" id="Fill-5" fill="#1A1919"></path>
        <path d="M193.115,24.126 C193.115,24.281 193.174,24.403 193.327,24.495 C193.791,24.769 195.188,24.988 196.534,24.988 C197.27,24.988 198.118,24.886 198.826,24.403 C199.895,23.669 200.678,22.019 200.678,19.705 C200.678,15.891 198.669,13.594 195.407,13.594 C194.483,13.594 193.653,13.695 193.358,13.783 C193.21,13.837 193.115,13.962 193.115,14.15 L193.115,24.126 Z M190.473,21.47 C190.473,16.716 190.473,15.86 190.396,14.882 C190.346,13.837 190.092,13.355 189.098,13.141 C188.851,13.076 188.322,13.052 188.056,13.052 C187.929,13.052 187.814,12.987 187.814,12.87 C187.814,12.683 187.956,12.626 188.306,12.626 C189.674,12.626 191.598,12.712 191.753,12.712 C192.085,12.712 194.398,12.626 195.354,12.626 C197.267,12.626 199.315,12.806 200.938,13.962 C201.696,14.515 203.038,16.015 203.038,18.114 C203.038,20.376 202.085,22.627 199.35,25.158 C201.855,28.369 203.926,31.091 205.686,32.981 C207.345,34.722 208.644,35.05 209.41,35.175 C209.991,35.266 210.423,35.266 210.603,35.266 C210.754,35.266 210.879,35.351 210.879,35.452 C210.879,35.633 210.689,35.697 210.146,35.697 L207.977,35.697 C206.272,35.697 205.513,35.536 204.716,35.112 C203.408,34.412 202.326,32.916 200.6,30.622 C199.315,28.952 197.89,26.903 197.267,26.107 C197.155,25.999 197.065,25.928 196.879,25.928 L193.123,25.867 C192.967,25.867 192.903,25.962 192.903,26.107 L192.903,26.841 C192.903,29.771 192.903,32.184 193.063,33.472 C193.148,34.345 193.327,35.018 194.25,35.149 C194.676,35.202 195.354,35.266 195.616,35.266 C195.81,35.266 195.867,35.351 195.867,35.452 C195.867,35.603 195.714,35.697 195.388,35.697 C193.704,35.697 191.775,35.603 191.632,35.603 C191.598,35.603 189.674,35.697 188.755,35.697 C188.431,35.697 188.271,35.633 188.271,35.452 C188.271,35.351 188.322,35.266 188.511,35.266 C188.789,35.266 189.155,35.202 189.429,35.149 C190.039,35.018 190.193,34.345 190.312,33.472 C190.473,32.184 190.473,29.771 190.473,26.841 L190.473,21.47 Z" id="Fill-6" fill="#1A1919"></path>
        <path d="M209.404,35.293 C208.979,35.084 208.948,34.963 208.948,34.131 C208.948,32.611 209.073,31.389 209.109,30.892 C209.129,30.568 209.19,30.416 209.339,30.416 C209.529,30.416 209.567,30.502 209.567,30.754 C209.567,31.022 209.567,31.454 209.652,31.881 C210.105,34.131 212.122,34.992 214.175,34.992 C217.097,34.992 218.53,32.881 218.53,30.932 C218.53,28.821 217.645,27.607 215.022,25.437 L213.644,24.309 C210.423,21.649 209.677,19.769 209.677,17.681 C209.677,14.422 212.122,12.194 216.001,12.194 C217.184,12.194 218.075,12.32 218.838,12.5 C219.41,12.626 219.664,12.648 219.905,12.648 C220.145,12.648 220.217,12.712 220.217,12.87 C220.217,13.025 220.086,14.023 220.086,16.109 C220.086,16.596 220.03,16.801 219.882,16.801 C219.688,16.801 219.664,16.648 219.624,16.41 C219.608,16.043 219.41,15.21 219.234,14.882 C219.058,14.543 218.222,13.261 215.421,13.261 C213.311,13.261 211.675,14.58 211.675,16.801 C211.675,18.543 212.524,19.584 215.396,21.94 L216.24,22.605 C219.836,25.437 220.704,27.334 220.704,29.771 C220.704,31.022 220.217,33.342 218.115,34.833 C216.789,35.756 215.149,36.125 213.499,36.125 C212.063,36.125 210.658,35.907 209.404,35.293" id="Fill-7" fill="#1A1919"></path>
        <path d="M226.617,26.841 C226.617,29.771 226.617,32.184 226.773,33.472 C226.871,34.345 227.043,35.018 227.958,35.149 C228.384,35.202 229.062,35.266 229.342,35.266 C229.52,35.266 229.578,35.351 229.578,35.452 C229.578,35.603 229.428,35.697 229.091,35.697 C227.407,35.697 225.496,35.603 225.339,35.603 C225.185,35.603 223.273,35.697 222.346,35.697 C222.028,35.697 221.865,35.633 221.865,35.452 C221.865,35.351 221.933,35.266 222.11,35.266 C222.387,35.266 222.749,35.202 223.018,35.149 C223.636,35.018 223.784,34.345 223.9,33.472 C224.068,32.184 224.068,29.771 224.068,26.841 L224.068,21.47 C224.068,16.716 224.068,15.86 223.992,14.882 C223.938,13.837 223.636,13.317 222.958,13.177 C222.615,13.076 222.228,13.052 222.028,13.052 C221.898,13.052 221.771,12.987 221.771,12.87 C221.771,12.683 221.933,12.626 222.257,12.626 C223.273,12.626 225.185,12.712 225.339,12.712 C225.496,12.712 227.407,12.626 228.329,12.626 C228.665,12.626 228.812,12.683 228.812,12.87 C228.812,12.987 228.699,13.052 228.572,13.052 C228.358,13.052 228.179,13.076 227.815,13.141 C226.985,13.295 226.748,13.815 226.69,14.882 C226.617,15.86 226.617,16.716 226.617,21.47 L226.617,26.841" id="Fill-8" fill="#1A1919"></path>
        <path d="M240.762,26.841 C240.762,29.771 240.762,32.184 240.91,33.472 C241.002,34.345 241.19,35.018 242.104,35.149 C242.529,35.202 243.198,35.266 243.479,35.266 C243.649,35.266 243.718,35.351 243.718,35.452 C243.718,35.603 243.565,35.697 243.238,35.697 C241.552,35.697 239.625,35.603 239.477,35.603 C239.334,35.603 237.4,35.697 236.493,35.697 C236.148,35.697 236,35.633 236,35.452 C236,35.351 236.059,35.266 236.235,35.266 C236.515,35.266 236.886,35.202 237.16,35.149 C237.765,35.018 237.919,34.345 238.044,33.472 C238.198,32.184 238.198,29.771 238.198,26.841 L238.198,13.937 L233.682,13.998 C231.786,14.023 231.062,14.235 230.574,14.965 C230.231,15.497 230.142,15.705 230.043,15.917 C229.956,16.174 229.871,16.227 229.748,16.227 C229.652,16.227 229.578,16.129 229.578,15.947 C229.578,15.654 230.199,13.025 230.27,12.77 C230.324,12.594 230.449,12.194 230.574,12.194 C230.784,12.194 231.085,12.5 231.909,12.556 C232.786,12.648 233.957,12.712 234.319,12.712 L245.756,12.712 C247.707,12.712 248.535,12.413 248.785,12.413 C248.944,12.413 248.944,12.594 248.944,12.77 C248.944,13.695 248.853,15.795 248.853,16.129 C248.853,16.41 248.751,16.535 248.633,16.535 C248.474,16.535 248.416,16.435 248.387,16.015 L248.361,15.678 C248.238,14.755 247.53,14.062 244.607,13.998 L240.762,13.937 L240.762,26.841" id="Fill-9" fill="#1A1919"></path>
        <path d="M260.072,27.785 C260.072,26.142 259.759,25.462 259.367,24.587 C259.157,24.098 255.064,17.384 253.996,15.795 C253.229,14.663 252.472,13.909 251.927,13.536 C251.463,13.232 250.882,13.052 250.617,13.052 C250.452,13.052 250.3,12.987 250.3,12.833 C250.3,12.712 250.431,12.626 250.704,12.626 C251.293,12.626 253.577,12.712 253.724,12.712 C253.938,12.712 255.101,12.626 256.274,12.626 C256.626,12.626 256.683,12.712 256.683,12.833 C256.683,12.955 256.503,12.987 256.233,13.112 C255.979,13.232 255.825,13.417 255.825,13.656 C255.825,14.023 255.979,14.386 256.233,14.848 C256.713,15.741 261.288,23.613 261.829,24.495 C262.409,23.216 266.296,16.535 266.896,15.52 C267.296,14.882 267.426,14.364 267.426,13.962 C267.426,13.536 267.296,13.203 266.951,13.112 C266.671,13.025 266.477,12.955 266.477,12.806 C266.477,12.683 266.671,12.626 266.973,12.626 C267.759,12.626 268.741,12.712 268.98,12.712 C269.171,12.712 271.355,12.626 271.948,12.626 C272.147,12.626 272.336,12.683 272.336,12.806 C272.336,12.955 272.19,13.052 271.948,13.052 C271.604,13.052 271.024,13.177 270.536,13.482 C269.928,13.837 269.591,14.205 268.915,15.04 C267.921,16.257 263.636,23.424 263.098,24.743 C262.634,25.845 262.634,26.778 262.634,27.785 L262.634,30.416 C262.634,30.892 262.634,32.184 262.729,33.472 C262.777,34.345 263.06,35.018 263.979,35.149 C264.404,35.202 265.078,35.266 265.346,35.266 C265.536,35.266 265.593,35.351 265.593,35.452 C265.593,35.603 265.444,35.697 265.106,35.697 C263.42,35.697 261.507,35.603 261.354,35.603 C261.204,35.603 259.282,35.697 258.353,35.697 C258.026,35.697 257.871,35.633 257.871,35.452 C257.871,35.351 257.935,35.266 258.115,35.266 C258.39,35.266 258.763,35.202 259.03,35.149 C259.65,35.018 259.928,34.345 259.973,33.472 C260.072,32.184 260.072,30.892 260.072,30.416 L260.072,27.785" id="Fill-10" fill="#1A1919"></path>
        <path d="M98.041,59.855 C98.041,65.204 98.083,69.829 98.138,70.787 C98.185,72.047 98.288,74.066 98.691,74.63 C99.346,75.587 101.319,76.641 107.258,76.641 C111.963,76.641 116.283,74.929 119.264,71.958 C121.885,69.385 123.302,64.548 123.302,59.904 C123.302,53.498 120.528,49.368 118.459,47.205 C113.73,42.208 107.974,41.498 101.968,41.498 C100.964,41.498 99.087,41.654 98.691,41.856 C98.231,42.056 98.083,42.312 98.083,42.864 C98.041,44.583 98.041,49.723 98.041,53.6 L98.041,59.855 Z M93.797,54.411 C93.797,46.549 93.797,45.134 93.697,43.522 C93.604,41.802 93.199,40.998 91.528,40.639 C91.13,40.543 90.261,40.491 89.804,40.491 C89.617,40.491 89.405,40.391 89.405,40.191 C89.405,39.885 89.672,39.788 90.221,39.788 C92.481,39.788 95.666,39.936 95.913,39.936 C96.52,39.936 99.693,39.788 102.725,39.788 C107.705,39.788 116.944,39.331 122.947,45.54 C125.471,48.163 127.837,52.343 127.837,58.347 C127.837,64.698 125.21,69.592 122.393,72.562 C120.226,74.826 115.682,78.356 107.118,78.356 C102.777,78.356 96.42,77.75 95.913,77.75 C95.666,77.75 92.481,77.904 90.976,77.904 C90.429,77.904 90.157,77.806 90.157,77.502 C90.157,77.35 90.261,77.199 90.577,77.199 C91.028,77.199 91.632,77.096 92.088,76.998 C93.088,76.804 93.344,75.683 93.543,74.221 C93.797,72.11 93.797,68.126 93.797,63.285 L93.797,54.411 Z" id="Fill-11" fill="#1A1919"></path>
        <path d="M131.591,54.411 C131.591,46.549 131.591,45.134 131.477,43.522 C131.375,41.802 130.981,40.998 129.308,40.639 C128.911,40.543 128.051,40.491 127.598,40.491 C127.398,40.491 127.201,40.391 127.201,40.191 C127.201,39.885 127.449,39.788 128.007,39.788 C130.266,39.788 133.443,39.936 133.697,39.936 C134.058,39.936 145.667,39.936 146.815,39.885 C147.791,39.836 148.586,39.735 148.999,39.635 C149.243,39.586 149.436,39.382 149.7,39.382 C149.849,39.382 149.899,39.586 149.899,39.836 C149.899,40.191 149.643,40.797 149.49,42.208 C149.436,42.715 149.338,44.931 149.243,45.54 C149.2,45.788 149.092,46.091 148.883,46.091 C148.586,46.091 148.484,45.842 148.484,45.437 C148.484,45.081 148.43,44.225 148.177,43.621 C147.838,42.81 147.325,42.208 144.609,41.9 C143.754,41.802 136.676,41.753 136.127,41.753 C135.919,41.753 135.815,41.9 135.815,42.255 L135.815,56.169 C135.815,56.521 135.864,56.678 136.127,56.678 C136.771,56.678 144.55,56.678 145.715,56.582 C146.914,56.474 147.626,56.375 148.088,55.866 C148.43,55.464 148.635,55.214 148.845,55.214 C148.999,55.214 149.092,55.312 149.092,55.62 C149.092,55.917 148.845,56.775 148.689,58.442 C148.586,59.45 148.484,61.317 148.484,61.673 C148.484,62.079 148.484,62.631 148.128,62.631 C147.878,62.631 147.791,62.432 147.791,62.164 C147.791,61.673 147.791,61.169 147.584,60.512 C147.379,59.803 146.914,58.952 144.961,58.741 C143.597,58.591 137.033,58.495 136.171,58.495 C135.919,58.495 135.815,58.642 135.815,58.849 L135.815,63.285 C135.815,64.994 135.765,70.842 135.815,71.898 C135.971,75.397 138.303,76.038 143.251,76.038 C144.55,76.038 146.772,76.038 148.088,75.487 C149.401,74.929 150.001,73.916 150.354,71.855 C150.454,71.297 150.556,71.101 150.814,71.101 C151.104,71.101 151.104,71.494 151.104,71.855 C151.104,72.251 150.717,75.683 150.454,76.744 C150.106,78.056 149.7,78.056 147.728,78.056 C140.118,78.056 135.169,77.75 133.697,77.75 C133.443,77.75 130.266,77.904 128.763,77.904 C128.199,77.904 127.947,77.806 127.947,77.502 C127.947,77.35 128.051,77.199 128.356,77.199 C128.81,77.199 129.418,77.096 129.866,76.998 C130.873,76.804 131.129,75.683 131.335,74.221 C131.591,72.11 131.591,68.126 131.591,63.285 L131.591,54.411" id="Fill-12" fill="#1A1919"></path>
        <path d="M158.789,71.047 C158.889,75.177 159.386,76.496 160.752,76.895 C161.712,77.146 162.824,77.199 163.271,77.199 C163.521,77.199 163.678,77.295 163.678,77.502 C163.678,77.806 163.375,77.904 162.77,77.904 C159.895,77.904 157.88,77.75 157.416,77.75 C156.963,77.75 154.86,77.904 152.588,77.904 C152.07,77.904 151.782,77.856 151.782,77.502 C151.782,77.295 151.927,77.199 152.181,77.199 C152.588,77.199 153.483,77.146 154.236,76.895 C155.509,76.541 155.77,75.074 155.77,70.485 L155.813,41.601 C155.813,39.635 155.963,39.081 156.361,39.081 C156.764,39.081 157.636,40.191 158.123,40.697 C158.889,41.552 166.404,49.672 174.175,57.988 C179.154,63.336 184.653,69.492 186.266,71.146 L185.711,45.54 C185.658,42.255 185.313,41.148 183.747,40.742 C182.834,40.543 181.673,40.491 181.274,40.491 C180.917,40.491 180.88,40.347 180.88,40.141 C180.88,39.836 181.274,39.788 181.883,39.788 C184.149,39.788 186.571,39.936 187.117,39.936 C187.683,39.936 189.342,39.788 191.407,39.788 C191.956,39.788 192.322,39.836 192.322,40.141 C192.322,40.347 192.119,40.491 191.77,40.491 C191.518,40.491 191.17,40.491 190.556,40.639 C188.891,40.998 188.693,42.116 188.693,45.134 L188.581,74.672 C188.581,78.005 188.49,78.255 188.139,78.255 C187.735,78.255 187.128,77.701 184.448,75.03 C183.899,74.526 176.627,67.119 171.292,61.368 C165.442,55.055 159.742,48.719 158.123,46.902 L158.789,71.047" id="Fill-13" fill="#1A1919"></path>
        <path d="M214.819,71.753 C217.736,64.994 224.505,47.404 225.612,43.772 C225.852,43.014 226.058,42.312 226.058,41.856 C226.058,41.451 225.918,40.945 225.409,40.695 C224.808,40.491 224.049,40.491 223.494,40.491 C223.191,40.491 222.947,40.441 222.947,40.191 C222.947,39.885 223.237,39.788 224.049,39.788 C226.058,39.788 228.367,39.936 228.992,39.936 C229.288,39.936 231.46,39.788 232.924,39.788 C233.482,39.788 233.777,39.885 233.777,40.141 C233.777,40.391 233.569,40.491 233.17,40.491 C232.815,40.491 231.718,40.491 230.761,41.099 C230.096,41.552 229.342,42.409 227.981,45.842 C227.431,47.252 224.901,53.294 222.333,59.502 C219.259,66.861 216.99,72.31 215.825,74.778 C214.418,77.806 214.211,78.606 213.702,78.606 C213.111,78.606 212.863,77.904 211.897,75.487 L199.54,44.583 C198.437,41.753 197.676,41.199 195.902,40.695 C195.152,40.491 194.295,40.491 194,40.491 C193.701,40.491 193.587,40.347 193.587,40.141 C193.587,39.836 194.102,39.788 194.891,39.788 C197.315,39.788 200.199,39.936 200.805,39.936 C201.307,39.936 203.578,39.788 205.491,39.788 C206.4,39.788 206.857,39.885 206.857,40.141 C206.857,40.391 206.698,40.491 206.349,40.491 C205.788,40.491 204.89,40.543 204.432,40.742 C203.875,40.998 203.779,41.404 203.779,41.753 C203.779,42.409 204.383,43.973 205.136,45.942 L214.819,71.753" id="Fill-14" fill="#1A1919"></path>
        <path d="M240.065,54.411 C240.065,46.549 240.065,45.134 239.974,43.522 C239.857,41.802 239.462,40.998 237.796,40.639 C237.394,40.543 236.538,40.491 236.085,40.491 C235.879,40.491 235.684,40.391 235.684,40.191 C235.684,39.885 235.937,39.788 236.491,39.788 C238.752,39.788 241.936,39.936 242.19,39.936 C242.54,39.936 254.147,39.936 255.308,39.885 C256.27,39.836 257.072,39.735 257.481,39.635 C257.728,39.586 257.927,39.382 258.183,39.382 C258.329,39.382 258.38,39.586 258.38,39.836 C258.38,40.191 258.128,40.797 257.978,42.208 C257.927,42.715 257.833,44.931 257.728,45.54 C257.674,45.788 257.574,46.091 257.369,46.091 C257.072,46.091 256.969,45.842 256.969,45.433 C256.969,45.081 256.92,44.225 256.674,43.621 C256.318,42.81 255.814,42.208 253.092,41.9 C252.24,41.802 245.162,41.753 244.607,41.753 C244.401,41.753 244.309,41.9 244.309,42.255 L244.309,56.169 C244.309,56.521 244.354,56.678 244.607,56.678 C245.254,56.678 253.05,56.678 254.208,56.582 C255.399,56.474 256.112,56.375 256.563,55.866 C256.92,55.464 257.13,55.214 257.318,55.214 C257.481,55.214 257.574,55.312 257.574,55.62 C257.574,55.917 257.318,56.775 257.166,58.442 C257.072,59.45 256.969,61.317 256.969,61.673 C256.969,62.079 256.969,62.631 256.613,62.631 C256.371,62.631 256.27,62.427 256.27,62.164 C256.27,61.673 256.27,61.169 256.064,60.512 C255.869,59.803 255.399,58.952 253.443,58.741 C252.086,58.591 245.519,58.495 244.662,58.495 C244.401,58.495 244.309,58.642 244.309,58.849 L244.309,63.285 C244.309,64.994 244.258,70.842 244.309,71.898 C244.442,75.397 246.792,76.038 251.722,76.038 C253.05,76.038 255.257,76.038 256.563,75.487 C257.876,74.929 258.483,73.916 258.842,71.855 C258.935,71.297 259.038,71.101 259.293,71.101 C259.6,71.101 259.6,71.494 259.6,71.855 C259.6,72.251 259.19,75.683 258.935,76.744 C258.585,78.056 258.183,78.056 256.208,78.056 C248.604,78.056 243.653,77.75 242.19,77.75 C241.936,77.75 238.752,77.904 237.247,77.904 C236.696,77.904 236.434,77.806 236.434,77.502 C236.434,77.35 236.538,77.199 236.847,77.199 C237.292,77.199 237.904,77.096 238.349,76.998 C239.357,76.804 239.614,75.683 239.813,74.221 C240.065,72.106 240.065,68.126 240.065,63.285 L240.065,54.411" id="Fill-15" fill="#1A1919"></path>
        <path d="M268.855,58.794 C268.855,59.048 268.957,59.252 269.214,59.402 C269.97,59.855 272.287,60.207 274.508,60.207 C275.726,60.207 277.128,60.059 278.289,59.252 C280.056,58.037 281.354,55.312 281.354,51.485 C281.354,45.181 278.042,41.404 272.642,41.404 C271.131,41.404 269.763,41.552 269.261,41.706 C269.008,41.802 268.855,42.001 268.855,42.312 L268.855,58.794 Z M264.826,54.411 C264.826,46.549 264.826,45.134 264.723,43.522 C264.616,41.802 264.227,40.998 262.551,40.639 C262.157,40.543 261.297,40.491 260.841,40.491 C260.645,40.491 260.44,40.391 260.44,40.191 C260.44,39.885 260.691,39.788 261.241,39.788 C263.507,39.788 266.692,39.936 266.947,39.936 C267.498,39.936 271.326,39.788 272.897,39.788 C276.071,39.788 279.456,40.09 282.126,42.001 C283.384,42.917 285.596,45.377 285.596,48.86 C285.596,52.587 284.032,56.323 279.508,60.512 C283.632,65.802 287.06,70.286 289.978,73.411 C292.702,76.288 294.882,76.841 296.13,77.047 C297.091,77.197 297.797,77.197 298.108,77.197 C298.352,77.197 298.562,77.35 298.562,77.502 C298.562,77.806 298.254,77.904 297.348,77.904 L293.768,77.904 C290.941,77.904 289.689,77.652 288.378,76.945 C286.202,75.786 284.448,73.31 281.564,69.526 C279.456,66.768 277.082,63.381 276.071,62.079 C275.868,61.876 275.726,61.772 275.415,61.772 L269.214,61.673 C268.957,61.673 268.855,61.821 268.855,62.079 L268.855,63.285 C268.855,68.126 268.855,72.106 269.112,74.221 C269.261,75.683 269.559,76.804 271.078,76.998 C271.783,77.096 272.897,77.199 273.345,77.199 C273.649,77.199 273.751,77.35 273.751,77.502 C273.751,77.75 273.499,77.904 272.944,77.904 C270.165,77.904 266.985,77.75 266.745,77.75 C266.692,77.75 263.507,77.904 262.002,77.904 C261.451,77.904 261.193,77.806 261.193,77.502 C261.193,77.35 261.297,77.199 261.604,77.199 C262.051,77.199 262.654,77.096 263.11,76.998 C264.11,76.804 264.369,75.683 264.567,74.221 C264.826,72.106 264.826,68.126 264.826,63.285 L264.826,54.411 Z" id="Fill-16" fill="#1A1919"></path>
        <path d="M279.755,24.067 C279.755,23.448 279.601,22.975 279.298,22.649 C279.005,22.325 278.611,22.156 278.139,22.156 C277.164,22.156 276.265,22.857 275.446,24.245 C274.629,25.64 274.224,27.024 274.224,28.408 C274.224,29.035 274.389,29.517 274.7,29.859 C275.019,30.198 275.427,30.374 275.903,30.374 C276.832,30.374 277.711,29.68 278.53,28.292 C279.351,26.908 279.755,25.493 279.755,24.067 Z M281.401,24.743 C281.401,25.742 281.139,26.732 280.615,27.702 C280.082,28.673 279.363,29.441 278.412,30.021 C277.476,30.581 276.555,30.865 275.677,30.865 C274.762,30.865 274.027,30.581 273.453,30.001 C272.879,29.425 272.591,28.673 272.591,27.747 C272.591,26.774 272.864,25.791 273.428,24.823 C273.997,23.835 274.732,23.067 275.677,22.499 C276.618,21.917 277.514,21.638 278.389,21.638 C279.269,21.638 279.992,21.932 280.544,22.509 C281.12,23.075 281.401,23.827 281.401,24.743 Z" id="Fill-17" fill="#1A1919"></path>
        <g id="Group-21">
            <mask id="mask-2" fill="white">
                <use xlink:href="#path-1"></use>
            </mask>
            <g id="Clip-19"></g>
            <path d="M287.594,21.879 L287.411,22.538 L285.978,22.538 L284.874,26.868 C284.395,28.791 283.907,30.269 283.423,31.314 C282.728,32.791 281.974,33.804 281.175,34.374 C280.573,34.807 279.948,35.028 279.343,35.028 C278.952,35.028 278.611,34.898 278.332,34.666 C278.133,34.494 278.026,34.274 278.026,34.016 C278.026,33.804 278.104,33.626 278.278,33.472 C278.452,33.307 278.651,33.233 278.896,33.233 C279.077,33.233 279.238,33.291 279.351,33.398 C279.467,33.516 279.533,33.651 279.533,33.787 C279.533,33.934 279.461,34.081 279.321,34.193 C279.218,34.294 279.181,34.355 279.181,34.407 C279.181,34.47 279.189,34.512 279.242,34.544 C279.3,34.597 279.397,34.606 279.516,34.606 C279.8,34.606 280.095,34.532 280.419,34.342 C280.729,34.166 281.01,33.899 281.253,33.548 C281.505,33.195 281.736,32.677 281.95,32.01 C282.046,31.736 282.289,30.818 282.689,29.267 L284.423,22.538 L282.689,22.538 L282.829,21.879 C283.385,21.879 283.771,21.843 283.986,21.769 C284.208,21.69 284.401,21.545 284.586,21.334 C284.771,21.114 285.005,20.716 285.298,20.124 C285.689,19.331 286.063,18.709 286.416,18.275 C286.909,17.688 287.429,17.243 287.967,16.949 C288.503,16.652 289.005,16.513 289.479,16.513 C289.992,16.513 290.393,16.632 290.706,16.89 C291.003,17.145 291.159,17.422 291.159,17.712 C291.159,17.953 291.066,18.15 290.931,18.303 C290.775,18.46 290.577,18.545 290.337,18.545 C290.138,18.545 289.971,18.486 289.839,18.357 C289.704,18.243 289.648,18.107 289.648,17.94 C289.648,17.83 289.683,17.699 289.775,17.542 C289.867,17.393 289.913,17.283 289.913,17.229 C289.913,17.145 289.875,17.069 289.818,17.022 C289.737,16.964 289.603,16.926 289.435,16.926 C289.02,16.926 288.636,17.06 288.32,17.326 C287.871,17.672 287.476,18.218 287.123,18.969 C286.947,19.37 286.623,20.33 286.141,21.879 L287.594,21.879" id="Fill-18" fill="#1A1919" mask="url(#mask-2)"></path>
            <path d="M66.81,4.293 C56.097,1.557 45.187,0.169 34.402,0.169 C23.873,0.169 13.227,1.49 2.768,4.097 L0,4.788 L0,34.139 C0.09,43.735 2.116,52.696 6.023,60.771 C11.383,71.818 20.46,80.98 32.996,88.002 L34.781,89 L36.565,88.002 C49.106,80.98 58.177,71.818 63.532,60.764 C67.447,52.692 69.473,43.733 69.56,34.139 L69.56,4.998 L66.81,4.293" id="Fill-20" fill="#81112C" mask="url(#mask-2)"></path>
        </g>
        <path d="M13.881,12.121 L16.155,11.152 L16.349,11.152 L14.303,18.043 C14.165,18.505 14.102,18.79 14.105,18.899 C14.113,19.011 14.165,19.102 14.267,19.158 C14.372,19.218 14.599,19.254 14.974,19.261 L14.905,19.484 L11.832,19.484 L11.906,19.261 C12.287,19.254 12.546,19.221 12.682,19.162 C12.805,19.105 12.91,19.024 12.984,18.928 C13.053,18.826 13.167,18.537 13.307,18.043 L14.615,13.638 C14.796,13.047 14.887,12.663 14.898,12.496 C14.905,12.366 14.885,12.271 14.831,12.21 C14.776,12.15 14.693,12.121 14.584,12.121 C14.435,12.121 14.211,12.187 13.912,12.306 L13.881,12.121" id="Fill-22" fill="#9F9369"></path>
        <path d="M19.407,14.727 C20.019,14.293 20.423,13.955 20.622,13.703 C20.829,13.451 20.972,13.168 21.072,12.848 C21.2,12.429 21.171,12.094 21.016,11.86 C20.845,11.623 20.554,11.501 20.147,11.501 C19.738,11.501 19.367,11.623 19.042,11.856 C18.72,12.092 18.51,12.37 18.412,12.685 C18.349,12.895 18.336,13.105 18.387,13.313 C18.428,13.523 18.517,13.721 18.657,13.909 L19.407,14.727 Z M18.484,15.602 C18.07,15.882 17.734,16.187 17.477,16.52 C17.214,16.852 17.022,17.209 16.908,17.598 C16.754,18.111 16.774,18.524 16.974,18.837 C17.162,19.147 17.477,19.299 17.908,19.299 C18.347,19.299 18.727,19.181 19.063,18.935 C19.394,18.69 19.613,18.395 19.716,18.043 C19.803,17.755 19.803,17.499 19.716,17.268 C19.559,16.844 19.146,16.285 18.484,15.602 Z M18.272,15.375 C17.783,14.844 17.492,14.417 17.399,14.1 C17.307,13.775 17.314,13.438 17.419,13.098 C17.579,12.567 17.908,12.112 18.438,11.726 C18.961,11.344 19.563,11.152 20.24,11.152 C20.899,11.152 21.376,11.331 21.671,11.69 C21.965,12.047 22.046,12.455 21.909,12.909 C21.816,13.215 21.621,13.525 21.305,13.84 C20.992,14.161 20.43,14.534 19.617,14.964 C20.166,15.509 20.503,15.937 20.642,16.254 C20.827,16.656 20.849,17.092 20.713,17.547 C20.546,18.118 20.182,18.611 19.617,19.017 C19.064,19.426 18.428,19.629 17.714,19.629 C16.939,19.629 16.408,19.384 16.126,18.899 C15.892,18.507 15.845,18.085 15.981,17.622 C16.088,17.267 16.318,16.904 16.668,16.549 C17.019,16.196 17.55,15.801 18.272,15.375 Z" id="Fill-23" fill="#9F9369"></path>
        <path d="M24.097,15.368 C23.869,15.91 23.704,16.348 23.599,16.678 C23.488,17.065 23.432,17.486 23.443,17.937 C23.452,18.384 23.559,18.743 23.758,19.007 C23.905,19.198 24.13,19.295 24.418,19.295 C24.768,19.295 25.128,19.127 25.507,18.795 C25.88,18.469 26.151,17.997 26.334,17.392 C26.545,16.701 26.584,16.11 26.456,15.605 C26.329,15.105 26.018,14.855 25.514,14.855 C25.362,14.855 25.193,14.888 24.994,14.951 C24.804,15.018 24.505,15.154 24.097,15.368 Z M29.098,11.152 L29.027,11.375 C28.485,11.429 28.025,11.531 27.635,11.69 C27.255,11.848 26.852,12.092 26.427,12.415 C26.005,12.739 25.626,13.105 25.293,13.503 C24.965,13.902 24.639,14.375 24.331,14.926 C25.025,14.531 25.666,14.328 26.253,14.328 C26.806,14.328 27.221,14.556 27.499,15.007 C27.773,15.457 27.806,16.035 27.597,16.737 C27.398,17.42 27.009,18.04 26.427,18.604 C25.722,19.288 24.969,19.629 24.151,19.629 C23.586,19.629 23.169,19.444 22.889,19.075 C22.336,18.357 22.236,17.422 22.577,16.279 C22.794,15.553 23.143,14.855 23.633,14.201 C24.119,13.54 24.717,12.955 25.409,12.445 C26.103,11.937 26.731,11.592 27.273,11.42 C27.829,11.239 28.316,11.152 28.748,11.152 L29.098,11.152 Z" id="Fill-24" fill="#9F9369"></path>
        <path d="M32.052,16.475 L33.25,12.424 L29.185,16.475 L32.052,16.475 Z M34.136,16.475 L33.882,17.332 L32.786,17.332 L32.145,19.484 L31.155,19.484 L31.799,17.332 L28.336,17.332 L28.57,16.558 L33.962,11.152 L34.621,11.152 L33.04,16.475 L34.136,16.475 Z" id="Fill-25" fill="#9F9369"></path>
        <path d="M18.417,38.498 C18.417,38.498 22.682,36.294 26.403,34.305 C30.124,32.32 35.29,31.959 39.41,34.164 L37.748,31.526 L45.37,34.994 L45.658,32.936 L35.002,27.624 L15.745,38.063 L18.417,38.498" id="Fill-26" fill="#FFFFFE"></path>
        <path d="M64.286,34.26 C64.261,36.857 64.072,39.315 63.768,41.67 L54.976,37.431 L55.248,38.981 L63.641,42.584 C62.854,48.011 61.402,52.815 59.527,57.055 C58.046,57.262 56.603,57.491 55.199,57.756 L55.155,57.767 L55.106,49.148 C55.106,49.147 55.106,49.142 55.106,49.138 C55.099,48.006 54.597,46.969 53.76,46.138 L53.738,41.55 L53.735,40.651 L53.992,40.304 L53.99,40.083 C52.805,39.161 50.881,38.561 48.709,38.561 C48.7,38.561 48.694,38.561 48.686,38.561 L48.686,38.564 L48.682,38.564 L48.686,38.701 L48.686,38.808 C48.684,38.808 48.68,38.809 48.678,38.809 L48.678,38.775 C48.68,38.775 48.68,38.775 48.68,38.775 L48.68,38.701 L48.682,38.564 L48.68,38.564 L48.68,38.561 C46.488,38.568 44.551,39.184 43.377,40.123 L43.377,40.304 L43.636,40.657 L43.631,41.547 L43.633,41.548 L43.611,46.143 C42.776,46.973 42.277,48.011 42.272,49.138 C42.272,49.152 42.274,49.165 42.274,49.18 L42.205,60.972 L42.182,60.979 C41.348,61.236 40.531,61.49 39.747,61.749 L39.747,50.563 L37.459,50.563 L37.459,48.063 L27.815,48.063 L27.815,50.563 L25.775,50.563 L25.775,67.34 C25.038,67.695 24.314,68.052 23.612,68.41 L23.612,65.876 L20.394,56.813 L17.022,65.876 L17.022,68.461 C14.651,65.533 12.477,62.213 10.674,58.425 C8.529,53.924 6.862,48.754 5.986,42.846 C8.16,41.633 11.667,39.967 16.66,39.967 C23.919,39.967 32.36,43.442 32.36,43.442 C28.626,41.548 20.843,38.632 13.204,36.481 L5.732,41.079 C5.477,38.905 5.326,36.636 5.305,34.26 L5.305,8.749 C24.911,3.78 44.685,3.842 64.286,8.931 L64.286,34.26 Z M51.909,45.362 L51.892,40.187 C52.292,40.316 52.637,40.463 52.934,40.629 L52.956,45.695 C52.673,45.568 52.318,45.456 51.909,45.362 Z M50.053,45.089 L50.046,39.794 C50.421,39.835 50.76,39.9 51.09,39.972 L51.101,45.208 C50.771,45.157 50.423,45.117 50.053,45.089 Z M48.689,45.03 C48.495,45.03 48.311,45.041 48.12,45.046 L48.124,39.749 C48.314,39.74 48.488,39.715 48.689,39.715 C48.887,39.715 49.059,39.74 49.247,39.748 L49.251,45.046 C49.064,45.041 48.881,45.03 48.689,45.03 Z M47.318,45.09 C46.948,45.118 46.597,45.158 46.269,45.209 L46.279,39.974 C46.609,39.903 46.948,39.836 47.323,39.795 L47.318,45.09 Z M45.464,45.362 C45.053,45.458 44.698,45.568 44.415,45.697 L44.435,40.636 C44.73,40.47 45.079,40.321 45.479,40.191 L45.464,45.362 Z M34.833,75.426 L33.429,75.801 L33.429,56.859 C33.429,56.438 33.753,56.107 34.139,56.107 C34.523,56.107 34.833,56.438 34.833,56.859 L34.833,75.426 Z M31.498,76.316 L30.086,76.69 L30.086,56.859 C30.086,56.438 30.402,56.107 30.795,56.107 C31.172,56.107 31.498,56.438 31.498,56.859 L31.498,76.316 Z M3.654,7.646 L3.654,34.103 C3.743,44.123 6.015,52.368 9.315,59.175 C15.649,72.242 26.262,80.042 34.781,84.809 C43.299,80.042 53.914,72.242 60.248,59.175 C63.547,52.368 65.82,44.123 65.913,34.103 L65.913,7.835 C45.222,2.556 24.347,2.488 3.654,7.646 Z" id="Fill-27" fill="#FFFFFE"></path>
        <path d="M48.68,38.775 C48.68,38.775 48.68,38.775 48.678,38.775 L48.678,38.809 C48.68,38.809 48.68,38.808 48.684,38.808 L48.686,38.808 L48.686,38.701 L48.682,38.564 L48.68,38.701 L48.68,38.775" id="Fill-28" fill="#9F9369"></path>
        <path d="M53.99,40.083 L48.693,10.233 L43.377,40.084 L43.397,40.11 C44.575,39.179 46.498,38.568 48.68,38.561 L48.68,38.564 L48.686,38.564 L48.686,38.561 C48.694,38.561 48.7,38.561 48.709,38.561 C50.881,38.561 52.805,39.161 53.99,40.083" id="Fill-29" fill="#9F9369"></path>
    </g>
</svg>