<?xml version="1.0" standalone="no"?>
<!DOCTYPE svg PUBLIC "-//W3C//DTD SVG 20010904//EN"
 "http://www.w3.org/TR/2001/REC-SVG-20010904/DTD/svg10.dtd">
<svg version="1.0" xmlns="http://www.w3.org/2000/svg"
 width="230.000000pt" height="230.000000pt" viewBox="0 0 230.000000 230.000000"
 preserveAspectRatio="xMidYMid meet">
<metadata>
Created by potrace 1.11, written by Peter Selinger 2001-2013
</metadata>
<g transform="translate(0.000000,230.000000) scale(0.100000,-0.100000)"
fill="#000000" stroke="none">
<path d="M1976 2055 c-3 -8 -1 -15 4 -15 6 0 10 7 10 15 0 8 -2 15 -4 15 -2 0
-6 -7 -10 -15z"/>
<path d="M2250 1985 c-7 -9 -8 -15 -2 -15 5 0 12 7 16 15 3 8 4 15 2 15 -2 0
-9 -7 -16 -15z"/>
<path d="M2104 1978 c-3 -4 2 -8 10 -8 8 0 17 4 20 8 3 5 -2 9 -10 9 -8 0 -17
-4 -20 -9z"/>
<path d="M2094 1918 c-6 -10 -6 -10 32 -12 24 -2 31 1 27 12 -5 11 -7 11 -14
0 -5 -7 -9 -8 -9 -2 0 13 -29 14 -36 2z"/>
<path d="M2221 1916 c-10 -12 -9 -14 5 -12 10 2 20 8 22 14 5 17 -13 15 -27
-2z"/>
<path d="M2090 1880 c-8 -5 -11 -10 -7 -10 5 0 -1 -12 -12 -26 -12 -15 -21
-35 -21 -46 0 -26 -21 -45 -47 -43 -12 1 -22 -1 -21 -4 2 -22 -6 -27 -37 -23
-19 2 -35 9 -35 15 0 5 -8 3 -18 -6 -10 -10 -21 -15 -24 -12 -3 3 -8 -2 -12
-11 -4 -12 -2 -15 9 -10 8 3 15 0 15 -7 0 -8 4 -7 11 3 9 13 10 12 5 -2 -3
-10 -1 -18 4 -18 6 0 10 3 10 8 0 4 9 13 20 20 18 11 20 10 20 -9 0 -11 -4
-17 -10 -14 -6 4 -17 2 -25 -5 -10 -8 -19 -8 -35 2 -13 8 -23 9 -28 3 -24 -34
-54 16 -34 58 16 34 25 61 24 70 -1 4 4 7 11 7 6 0 3 7 -8 16 -17 13 -18 16
-5 24 11 7 7 9 -15 8 -30 -3 -50 -18 -71 -54 -14 -23 -44 -31 -55 -13 -4 7
-11 10 -15 6 -4 -4 -2 -13 4 -19 14 -14 16 -32 3 -24 -5 3 -19 -5 -32 -18 -13
-13 -34 -26 -47 -30 -12 -4 -20 -12 -17 -17 4 -5 -3 -9 -14 -9 -11 0 -23 -5
-26 -10 -5 -8 -12 -7 -22 2 -12 10 -17 9 -25 -5 -5 -10 -13 -15 -19 -12 -5 4
-9 2 -9 -4 0 -13 -56 -71 -69 -71 -6 0 -8 6 -5 13 3 8 -3 13 -16 13 -11 0 -20
-4 -20 -8 0 -14 -4 -23 -14 -34 -12 -13 -29 -7 -21 7 11 17 -12 9 -30 -11 -10
-11 -13 -20 -7 -20 7 0 11 -4 10 -9 -2 -5 1 -9 6 -9 5 -1 14 -11 20 -24 10
-18 9 -28 -2 -45 -8 -13 -18 -20 -23 -17 -5 3 -12 -2 -15 -10 -3 -9 -11 -16
-16 -16 -6 0 -24 -13 -40 -30 -15 -16 -34 -30 -41 -30 -8 0 -7 -4 3 -10 13 -8
12 -10 -5 -11 -11 -1 -26 -2 -32 -2 -12 1 -17 -10 -15 -28 1 -4 -13 -14 -31
-23 l-32 -16 -181 185 -182 185 -283 -2 -284 -3 247 -250 c441 -446 412 -414
391 -437 -29 -33 -250 -259 -454 -464 -104 -105 -189 -193 -189 -196 0 -3 127
-5 281 -5 l281 0 194 196 194 196 193 -197 193 -196 282 1 c253 1 280 2 269
16 -14 18 -424 437 -538 549 l-76 75 16 41 c18 46 63 99 88 102 9 2 19 7 22
13 4 6 12 6 20 1 9 -5 21 -1 34 10 17 17 21 17 34 4 19 -18 27 -18 19 1 -5 15
26 40 37 29 3 -3 10 3 16 14 10 19 -4 79 -22 93 -11 8 20 32 33 24 11 -7 33
41 25 55 -3 4 6 15 20 24 23 15 26 15 41 -3 20 -23 44 -17 39 10 -2 12 4 23
18 31 12 6 27 16 32 23 6 6 27 24 48 39 21 16 36 34 33 41 -2 7 -2 16 2 20 4
4 7 10 7 13 1 4 6 17 13 29 15 26 -1 41 -24 22 -8 -6 -17 -9 -21 -6 -7 8 25
59 44 70 7 5 11 12 8 18 -4 5 -1 9 5 9 7 0 9 7 6 16 -3 8 -2 13 3 10 9 -6 39
55 45 94 3 14 5 27 6 30 2 3 2 8 1 12 0 4 10 19 24 34 35 38 32 58 -5 34z
m-280 -210 c0 -5 -5 -10 -11 -10 -5 0 -7 5 -4 10 3 6 8 10 11 10 2 0 4 -4 4
-10z m60 -13 c0 -8 -7 -14 -15 -14 -11 0 -12 4 -4 14 6 7 13 13 15 13 2 0 4
-6 4 -13z m3 -51 c3 3 3 -3 1 -13 -5 -19 -34 -28 -34 -11 0 4 5 8 11 8 8 0 7
6 -2 18 -12 15 -12 16 2 5 9 -7 18 -10 22 -7z m37 4 c0 -5 -2 -10 -4 -10 -3 0
-8 5 -11 10 -3 6 -1 10 4 10 6 0 11 -4 11 -10z m-470 -50 c0 -5 -4 -10 -10
-10 -5 0 -10 5 -10 10 0 6 5 10 10 10 6 0 10 -4 10 -10z m500 -20 c0 -5 -5
-10 -11 -10 -5 0 -7 5 -4 10 3 6 8 10 11 10 2 0 4 -4 4 -10z"/>
<path d="M1985 1840 c-3 -6 1 -7 9 -4 18 7 21 14 7 14 -6 0 -13 -4 -16 -10z"/>
<path d="M1720 1815 c0 -9 6 -12 15 -9 8 4 15 7 15 9 0 2 -7 5 -15 9 -9 3 -15
0 -15 -9z"/>
<path d="M1894 1795 c-4 -8 -10 -13 -14 -10 -5 3 -11 1 -14 -4 -7 -11 13 -9
32 3 7 4 20 2 30 -5 13 -11 12 -8 -2 9 -23 26 -25 27 -32 7z"/>
<path d="M1955 1779 c-10 -15 3 -25 16 -12 7 7 7 13 1 17 -6 3 -14 1 -17 -5z"/>
<path d="M1183 1383 c-7 -2 -13 -11 -13 -19 0 -12 4 -12 20 -2 31 20 26 35 -7
21z"/>
</g>
</svg>
